<svg xmlns="http://www.w3.org/2000/svg" width="110" height="28" viewBox="0 0 110 28" fill="none"><path d="M18.1183 1.84271C14.8738 3.27253e-07 12.2367 0 8.5856 0H0V27.2066H8.5856C12.3225 27.2066 14.577 27.2066 18.0943 25.3484C22.84 22.8503 24.5232 17.4097 24.5232 13.5098C24.5232 11.1077 23.969 8.79492 22.9207 6.82009C21.7986 4.70458 20.1823 3.03001 18.1183 1.84271ZM16.1572 22.2412C13.4841 23.782 11.7117 23.8575 8.80864 23.8575H3.68371V3.43149H8.81036C12.0463 3.43149 13.7088 3.50012 16.1263 5.05459C20.0434 7.551 20.6284 11.444 20.6284 13.5407C20.6284 17.2364 18.8732 20.6507 16.1572 22.2412Z" fill="white"></path><path d="M30.8907 15.1518H42.5252V11.8026H30.8907V3.43149H42.7774V0H27.207V27.2066H43.112V23.8575H30.8907V15.1518Z" fill="white"></path><path d="M49.2228 15.1518H60.7749V11.8026H49.2228V3.43149H61.1095V0H45.5391V27.2066H61.36V23.8575H49.2228V15.1518Z" fill="white"></path><path d="M99.3864 14.4449C101.543 12.5507 103.506 10.4729 105.232 8.26475C108.476 4.11436 109.998 0.221331 109.998 0H103.238L103.173 0.152701C101.531 3.98568 99.2063 7.52526 96.2569 10.6754L87.383 0.00171611H82.3851L93.486 13.3605C93.3847 13.4515 93.2818 13.5407 93.1788 13.6282C86.9352 19.0225 79.6176 22.14 74.5767 23.8043C71.6977 24.7548 69.2613 25.3416 67.7223 25.6676C67.6073 25.6916 67.4958 25.7156 67.3877 25.7379V15.2375H69.9991C73.0274 15.2375 74.6076 15.1929 76.814 14.1892L76.8278 14.1978L76.9462 14.1395C79.2315 13.0191 80.7071 10.4369 80.7071 7.55786C80.7071 6.1561 80.3794 4.88301 79.7325 3.77636C79.0994 2.69372 78.2141 1.82899 77.1006 1.2096C75.052 0.0566202 73.1681 0.00343157 69.7383 0.00343157H63.7881V27.2066H68.7706L68.7843 27.2049C75.7949 26.4482 82.349 24.621 88.2649 21.7745C91.1525 20.3848 93.8874 18.7342 96.3993 16.8658L104.992 27.2066H110L99.3864 14.4449ZM76.8106 7.64537C76.8106 9.05571 76.2187 10.4214 75.3728 10.9688C74.0362 11.8163 72.5521 11.9708 70.1106 11.9708H67.3877V3.34742H69.8121C73.2007 3.34742 74.3914 3.71116 75.3007 4.33569C76.2324 5.00998 76.8106 6.27792 76.8106 7.64537Z" fill="white"></path></svg>